<svg width="221" height="201" viewBox="0 0 221 201" fill="none" xmlns="http://www.w3.org/2000/svg">
<rect width="221" height="201" rx="80" fill="#C0C9E1"/>
<path fill-rule="evenodd" clip-rule="evenodd" d="M60.25 74.1041C60.25 63.6913 69.624 55.25 81.1875 55.25C92.751 55.25 102.125 63.6913 102.125 74.1041C102.125 84.517 92.751 92.9583 81.1875 92.9583C69.624 92.9583 60.25 84.517 60.25 74.1041ZM81.1875 70.3333C78.8748 70.3333 77 72.0216 77 74.1041C77 76.1867 78.8748 77.875 81.1875 77.875C83.5002 77.875 85.375 76.1867 85.375 74.1041C85.375 72.0216 83.5002 70.3333 81.1875 70.3333Z" fill="#2D3648"/>
<path fill-rule="evenodd" clip-rule="evenodd" d="M26.75 47.7083C26.75 35.2129 37.9988 25.0833 51.875 25.0833H169.125C183.001 25.0833 194.25 35.2129 194.25 47.7083V153.292C194.25 165.787 183.001 175.917 169.125 175.917H51.875C37.9988 175.917 26.75 165.787 26.75 153.292V47.7083ZM51.875 40.1666C47.2496 40.1666 43.5 43.5432 43.5 47.7083V153.292C43.5 156.526 45.7606 159.284 48.9366 160.356L138.079 80.0839C141.349 77.1387 146.652 77.1387 149.923 80.0839L177.5 104.917V47.7083C177.5 43.5432 173.75 40.1666 169.125 40.1666H51.875ZM177.5 126.248L144.001 96.0822L72.0947 160.833H169.125C173.75 160.833 177.5 157.457 177.5 153.292V126.248Z" fill="#2D3648"/>
</svg>
