<svg width="49" height="47" viewBox="0 0 49 47" fill="none" xmlns="http://www.w3.org/2000/svg">
<path d="M48.998 23.6448C48.998 10.585 38.0297 0 24.499 0C10.9683 0 0 10.585 0 23.6448C0 35.4436 8.9592 45.2247 20.6707 46.998V30.4782H14.4515V23.6429H20.6707V18.4351C20.6707 12.5081 24.3295 9.23527 29.9239 9.23527C32.6047 9.23527 35.4081 9.69635 35.4081 9.69635V15.5149H32.3209C29.2787 15.5149 28.3293 17.3376 28.3293 19.2075V23.6448H35.1243L34.038 30.4801H28.3293V47C40.0408 45.2266 49 35.4456 49 23.6448H48.998Z" fill="#0040AB"/>
</svg>
